<svg xmlns="http://www.w3.org/2000/svg" xmlns:xlink="http://www.w3.org/1999/xlink" width="500" zoomAndPan="magnify" viewBox="0 0 375 374.999991" height="500" preserveAspectRatio="xMidYMid meet" version="1.0"><defs><clipPath id="00f6468feb"><path d="M 16.765625 74.757812 L 215.695312 74.757812 L 215.695312 299.921875 L 16.765625 299.921875 Z M 16.765625 74.757812 " clip-rule="nonzero"/></clipPath><clipPath id="ca7d97a0ab"><path d="M 139.628906 114.972656 L 358.234375 114.972656 L 358.234375 300.789062 L 139.628906 300.789062 Z M 139.628906 114.972656 " clip-rule="nonzero"/></clipPath></defs><g clip-path="url(#00f6468feb)"><path fill="#eff0f2" d="M 215.742188 135.761719 C 215.742188 102.070312 188.429688 74.757812 154.738281 74.757812 L 16.769531 74.757812 L 16.769531 113.300781 L 154.738281 113.300781 C 167.144531 113.300781 177.203125 123.359375 177.203125 135.761719 C 177.203125 148.167969 167.144531 158.226562 154.738281 158.226562 L 16.769531 158.226562 L 16.769531 196.769531 L 24.839844 196.769531 C 47.722656 196.769531 69.667969 205.859375 85.847656 222.039062 L 138.769531 274.960938 C 154.949219 291.140625 176.894531 300.230469 199.78125 300.230469 L 215.746094 300.230469 L 215.746094 261.691406 C 192.863281 261.691406 170.917969 252.597656 154.734375 236.417969 L 115.089844 196.769531 L 154.742188 196.769531 C 188.433594 196.769531 215.746094 169.457031 215.746094 135.765625 Z M 215.742188 135.761719 " fill-opacity="1" fill-rule="nonzero"/></g><g clip-path="url(#ca7d97a0ab)"><path fill="#eff0f2" d="M 268.800781 171.101562 L 139.660156 300.242188 L 139.660156 244.214844 L 268.800781 114.972656 Z M 229.0625 244.011719 L 229.0625 300.242188 L 318.464844 210.9375 L 318.464844 300.242188 L 358.203125 260.503906 L 358.203125 114.972656 Z M 229.0625 244.011719 " fill-opacity="1" fill-rule="nonzero"/></g></svg>